<svg width="770" height="198" viewBox="0 0 770 198" fill="none" xmlns="http://www.w3.org/2000/svg">
<path d="M178.25 137.3C166.117 137.3 157.017 134.613 150.95 129.24C144.97 123.867 141.633 116.5 140.94 107.14H157.58C158.273 112.6 160.093 116.847 163.04 119.88C165.987 122.827 171.057 124.3 178.25 124.3C183.45 124.3 187.653 123 190.86 120.4C194.153 117.713 195.8 114.247 195.8 110C195.8 105.667 194.457 102.503 191.77 100.51C189.083 98.5167 183.97 96.9133 176.43 95.7C164.903 94.14 156.54 91.3667 151.34 87.38C146.227 83.3067 143.67 77.0233 143.67 68.53C143.67 60.8167 146.66 54.4467 152.64 49.42C158.62 44.3933 166.42 41.88 176.04 41.88C186.093 41.88 194.023 44.1767 199.83 48.77C205.637 53.2767 208.973 59.95 209.84 68.79H193.98C193.113 63.9367 191.25 60.4267 188.39 58.26C185.53 56.0067 181.413 54.88 176.04 54.88C170.927 54.88 166.983 56.0067 164.21 58.26C161.437 60.4267 160.05 63.3733 160.05 67.1C160.05 71.0867 161.307 74.0767 163.82 76.07C166.42 78.0633 171.577 79.6233 179.29 80.75C190.817 82.31 199.223 85.1267 204.51 89.2C209.797 93.1867 212.44 99.6433 212.44 108.57C212.44 116.803 209.277 123.65 202.95 129.11C196.623 134.57 188.39 137.3 178.25 137.3ZM245.23 136V56.7H219.36V43.05H288.52V56.7H262.65V136H245.23ZM334.708 136V43.05H359.278C368.898 43.05 376.568 45.1733 382.288 49.42C388.095 53.6667 390.998 60.2533 390.998 69.18V69.7C390.998 78.8 388.138 85.5167 382.418 89.85C376.698 94.0967 369.028 96.22 359.408 96.22H341.988V136H334.708ZM341.988 90.37H359.928C375.788 90.37 383.718 83.48 383.718 69.7V69.18C383.718 61.9867 381.638 56.83 377.478 53.71C373.318 50.59 367.381 49.03 359.668 49.03H341.988V90.37ZM408.595 136V43.05H415.875V130.02H460.985V136H408.595ZM469.86 136L503.27 43.05H512.89L546.3 136H539.02L528.75 107.53H486.89L476.75 136H469.86ZM507.82 49.03L488.97 101.68H526.67L507.82 49.03ZM576.328 136V94.66L544.478 43.05H552.538L580.098 88.55L606.358 43.05H613.638L583.608 94.79V136H576.328ZM628.605 136V43.05H682.035V49.03H635.885V85.3H673.325V91.28H635.885V130.02H684.375V136H628.605ZM702.237 136V43.05H727.717C737.337 43.05 745.007 45.0867 750.727 49.16C756.447 53.1467 759.307 59.43 759.307 68.01V68.53C759.307 82.6567 751.291 90.8467 735.257 93.1L764.767 136H756.707L727.587 93.62H709.517V136H702.237ZM709.517 87.77H728.107C744.054 87.77 752.027 81.3567 752.027 68.53V68.01C752.027 61.1633 749.947 56.31 745.787 53.45C741.714 50.5033 735.821 49.03 728.107 49.03H709.517V87.77Z" fill="white"/>
<g filter="url(#filter0_d_1_14)">
<path d="M56.8831 83.9663C63.1521 74.0438 76.2778 71.082 86.2003 77.3509C96.1228 83.6198 99.0846 96.7455 92.8157 106.668L58.2835 161.326C52.0145 171.248 38.8888 174.21 28.9663 167.941C19.0438 161.672 16.082 148.547 22.3509 138.624L56.8831 83.9663Z" fill="#23C8D2"/>
<path d="M51.8831 23.9663C58.1521 14.0438 71.2778 11.082 81.2003 17.3509C91.1228 23.6198 94.0846 36.7455 87.8157 46.668L53.2835 101.326C47.0145 111.248 33.8888 114.21 23.9663 107.941C14.0438 101.672 11.082 88.5468 17.3509 78.6243L51.8831 23.9663Z" fill="#23C8D2"/>
</g>
<defs>
<filter id="filter0_d_1_14" x="0.0628357" y="0.0628357" width="122.041" height="197.167" filterUnits="userSpaceOnUse" color-interpolation-filters="sRGB">
<feFlood flood-opacity="0" result="BackgroundImageFix"/>
<feColorMatrix in="SourceAlpha" type="matrix" values="0 0 0 0 0 0 0 0 0 0 0 0 0 0 0 0 0 0 127 0" result="hardAlpha"/>
<feOffset dx="6" dy="6"/>
<feGaussianBlur stdDeviation="10"/>
<feComposite in2="hardAlpha" operator="out"/>
<feColorMatrix type="matrix" values="0 0 0 0 0 0 0 0 0 0 0 0 0 0 0 0 0 0 0.13 0"/>
<feBlend mode="normal" in2="BackgroundImageFix" result="effect1_dropShadow_1_14"/>
<feBlend mode="normal" in="SourceGraphic" in2="effect1_dropShadow_1_14" result="shape"/>
</filter>
</defs>
</svg>
